<?xml version="1.0" encoding="utf-8"?>
<?xml-stylesheet type="text/xsl" href="rss1.xsl"?>
<rss version="2.0" xmlns:atom="http://www.w3.org/2005/Atom" xmlns:content="http://purl.org/rss/1.0/modules/content/" xmlns:dc="http://purl.org/dc/elements/1.1/" xmlns:media="http://search.yahoo.com/mrss/">
<channel>
 <title>Getty</title>
 <link>http://www.gettyimg.com/</link>
 <atom:link href="http://www.gettyimg.com/" rel="self" type="application/rss+xml" />

 
                <item>
                <title><![CDATA[【Cinema Center】MOVIE - Swing.2003.1080p.ROKU.WEB-DL.AAC2.0.H.264-Samuel]]></title>
                <link><![CDATA[https://sharemania.us/threads/swing-2003-1080p-roku-web-dl-aac2-0-h-264-samuel.228086/]]></link>
                <description><![CDATA[<article>
<blockquote class="messageText SelectQuoteContainer ugc baseHtml">
<div style="text-align: center"><b><span style="font-size: 26px">Swing</span></b><br>
<img src="https://i.imgur.com/04w8V3h.jpg" class="bbCodeImage LbImage" alt="[​IMG]" data-url="https://i.imgur.com/04w8V3h.jpg" style=""><br>
<b><a href="https://i.imgur.com/g69QTtY.jpg" target="_blank" class="externalLink" rel="nofollow">Alternate Artwork 1</a></b> | <b><a href="https://i.imgur.com/B3MZJdF.jpg" target="_blank" class="externalLink" rel="nofollow">Alternate Artwork 2</a></b> | <b><a href="https://i.imgur.com/yIZrl13.jpg" target="_blank" class="externalLink" rel="nofollow">Poster</a></b><br>
<br>
2003 | PG-13 | 1h 38m | Comedy, Specials, Dramas<br>
Innis Casey, Tom Skerritt, Jacqueline Bisset<br>
<b>Directed By:</b> Martin Guigui<br>
<br>
<div class="bbCodeBlock bbCodeQuote">
<aside>
<blockquote class="quoteContainer"><div class="quote"><b><span style="font-size: 15px">Description</span></b><br>
Anthony's (Innis Casey) father (Tom Skerritt) and fiance want him to settle down, but all he wants is to be a full-time musician. Anthony finds an amazing '40s night club and learns that by following his heart, he can have real happiness.</div><div class="quoteExpand">Click to expand...</div></blockquote>
</aside>
</div>
<div class="bbCodeBlock bbCodeQuote">
<aside>
<blockquote class="quoteContainer"><div class="quote"><b><span style="font-size: 15px">More Information</span></b><br>
<b>Cast:</b> Innis Casey, Tom Skerritt, Jacqueline Bisset, Jonathan Winters, Nell Carter, Adam Tomei, Mindy Cohn, Jim Hanks<br>
<b>Genres:</b> Comedy, Specials, Dramas, Fantasy, Romance, Music, Dramatic Comedies, Romantic Comedies<br>
<b>Directors:</b> Martin Guigui<br>
<br>
<b>Captions:</b> English [Closed caption]<br>
<b>Audio track:</b> English (Original)</div><div class="quoteExpand">Click to expand...</div></blockquote>
</aside>
</div>
<div class="bbCodeBlock bbCodeQuote">
<aside>
<blockquote class="quoteContainer"><div class="quote"><span style="font-size: 15px"><b>Source</b></span><br>
<img src="https://i.imgur.com/sxdbEA9.png" class="bbCodeImage LbImage" alt="[​IMG]" data-url="https://i.imgur.com/sxdbEA9.png" style=""></div><div class="quoteExpand">Click to expand...</div></blockquote>
</aside>
</div>
<div class="bbCodeBlock bbCodeQuote">
<aside>
<blockquote class="quoteContainer"><div class="quote"><b><span style="font-size: 15px">Release Name</span></b><br>
Swing.2003.1080p.ROKU.WEB-DL.AAC2.0.H.264-Samuel</div><div class="quoteExpand">Click to expand...</div></blockquote>
</aside>
</div>
<div class="ToggleTriggerAnchor bbCodeSpoilerContainer">
<button type="button" class="button bbCodeSpoilerButton ToggleTrigger Tooltip JsOnly" data-target="> .SpoilerTarget"><span>Spoiler: <span class="SpoilerTitle">Media Information</span></span></button>
<div class="SpoilerTarget bbCodeSpoilerText">General<br>
Complete name : Swing.2003.1080p.ROKU.WEB-DL.AAC2.0.H.264-Samuel.mkv<br>
Format : Matroska<br>
Format version : Version 4<br>
File size : 3.22 GiB<br>
Duration : 1 h 26 min<br>
Overall bit rate mode : Variable<br>
Overall bit rate : 5 330 kb/s<br>
Frame rate : 23.976 FPS<br>
Encoded date : 2023-05-07 10:01:16 UTC<br>
Writing application : mkvmerge v76.0 ('Celebration') 64-bit<br>
Writing library : libebml v1.4.4 + libmatroska v1.7.1<br>
<br>
Video<br>
ID : 1<br>
Format : AVC<br>
Format/Info : Advanced Video Codec<br>
Format profile : High@L4<br>
Format settings : CABAC / 3 Ref Frames<br>
Format settings, CABAC : Yes<br>
Format settings, Reference frames : 3 frames<br>
Codec ID : V_MPEG4/ISO/AVC<br>
Duration : 1 h 26 min<br>
Bit rate mode : Variable<br>
Bit rate : 5 200 kb/s<br>
Maximum bit rate : 5 495 kb/s<br>
Width : 1 920 pixels<br>
Height : 1 080 pixels<br>
Display aspect ratio : 16:9<br>
Frame rate mode : Constant<br>
Frame rate : 23.976 (24000/1001) FPS<br>
Color space : YUV<br>
Chroma subsampling : 4:2:0<br>
Bit depth : 8 bits<br>
Scan type : Progressive<br>
Bits/(Pixel*Frame) : 0.105<br>
Stream size : 3.14 GiB (98%)<br>
Default : Yes<br>
Forced : No<br>
Color range : Limited<br>
Color primaries : BT.709<br>
Transfer characteristics : BT.709<br>
Matrix coefficients : BT.709<br>
<br>
Audio<br>
ID : 2<br>
Format : AAC LC SBR<br>
Format/Info : Advanced Audio Codec Low Complexity with Spectral Band Replication<br>
Commercial name : HE-AAC<br>
Format settings : Explicit<br>
Codec ID : A_AAC-2<br>
Duration : 1 h 26 min<br>
Bit rate : 128 kb/s<br>
Channel(s) : 2 channels<br>
Channel layout : L R<br>
Sampling rate : 48.0 kHz<br>
Frame rate : 23.438 FPS (2048 SPF)<br>
Compression mode : Lossy<br>
Stream size : 79.2 MiB (2%)<br>
Language : English<br>
Default : Yes<br>
Forced : No<br>
<br>
Text<br>
ID : 3<br>
Format : UTF-8<br>
Codec ID : S_TEXT/UTF8<br>
Codec ID/Info : UTF-8 Plain Text<br>
Duration : 1 h 26 min<br>
Bit rate : 62 b/s<br>
Frame rate : 0.271 FPS<br>
Count of elements : 1404<br>
Stream size : 39.8 KiB (0%)<br>
Title : SDH<br>
Language : English<br>
Default : No<br>
Forced : No</div>
</div><br>
<b>Screenshots</b><br>
<img src="https://i.imgur.com/wx7xz3P.png" class="bbCodeImage LbImage" alt="[​IMG]" data-url="https://i.imgur.com/wx7xz3P.png" style=""><br>
<br>
<b>Download</b><br>
<div class="bbCodeBlock bbCodeVfcHH HiddenContent">
<div class="attribution type">Hidden Content:</div>
<blockquote>You must reply before you can see the hidden data contained here.</blockquote>
</div></div>
<div class="messageTextEndMarker">&nbsp;</div>
</blockquote>
</article>]]></description>
                <author><![CDATA[Samuel]]></author>
                </item>

                </channel></rss>